<svg clip-rule="evenodd" fill-rule="evenodd" stroke-linejoin="round" stroke-miterlimit="2" viewBox="0 0 48 48" xmlns="http://www.w3.org/2000/svg">
 <linearGradient id="a" x2="1" gradientTransform="matrix(38.2127 0 0 44.1242 7.30453 25.3277)" gradientUnits="userSpaceOnUse">
  <stop stop-color="#ae00ff" offset="0"/>
  <stop stop-color="#0810e8" offset="1"/>
 </linearGradient>
 <linearGradient id="b" x2="1" gradientTransform="matrix(38.2127 0 0 44.1242 7.30453 25.3277)" gradientUnits="userSpaceOnUse">
  <stop stop-color="#260ea0" offset="0"/>
  <stop stop-color="#1f008b" offset="1"/>
 </linearGradient>
 <linearGradient id="c" x2="1" gradientTransform="matrix(38.2127 0 0 44.1242 7.30453 25.3277)" gradientUnits="userSpaceOnUse">
  <stop stop-color="#f8f2ff" offset="0"/>
  <stop stop-color="#c1c3e5" offset="1"/>
 </linearGradient>
 <path transform="matrix(0 1.08784 -1.08784 0 51.5524 -4.73075)" d="m23.334 5.042c1.904-1.099 4.25-1.099 6.154 0 3.561 2.056 9.391 5.422 12.953 7.478 1.903 1.099 3.076 3.131 3.076 5.329v14.957c0 2.198-1.173 4.23-3.076 5.329-3.562 2.056-9.392 5.422-12.953 7.478-1.904 1.1-4.25 1.1-6.154 0-3.561-2.056-9.392-5.422-12.953-7.478-1.904-1.099-3.076-3.131-3.076-5.329v-14.957c0-2.198 1.172-4.23 3.076-5.329 3.561-2.056 9.392-5.422 12.953-7.478z" fill="url(#a)"/>
 <path transform="matrix(0 .754786 -.754786 0 43.117 4.06543)" d="m25.075 4.037c.827-.478 1.845-.478 2.671 0 3.504 2.023 12.932 7.465 16.436 9.489.826.477 1.335 1.358 1.335 2.313v18.978c0 .954-.509 1.836-1.335 2.313-3.504 2.023-12.932 7.466-16.436 9.489-.826.477-1.844.477-2.671 0-3.504-2.023-12.931-7.466-16.435-9.489-.826-.477-1.335-1.359-1.335-2.313v-18.978c0-.955.509-1.836 1.335-2.313 3.504-2.024 12.931-7.466 16.435-9.489z" fill="url(#b)"/>
 <path transform="matrix(0 .817549 -.817549 0 44.7066 2.4078)" d="m44.753 33.213c.203 0 .397.081.54.224.144.143.224.338.224.54v.06c0 1.437-.766 2.764-2.01 3.483l-15.086 8.709c-1.244.718-2.777.718-4.021 0l-15.085-8.709c-1.244-.719-2.01-2.046-2.01-3.483v-17.419c0-1.436.766-2.764 2.01-3.482 0 0 2.919-1.685 4.622-2.669.248-.143.552-.143.799 0s.399.406.399.692v21.176c0 .485.393.878.878.878h7.025c.485 0 .878-.393.878-.878 0 0 0-23.393 0-27.129 0-.39.163-.798.519-.97.475-.23 1.191-.483 2.112-.346.642.095 1.293.201 1.874.536 0 0 1.086.627 1.964 1.134.678.391 1.096 1.115 1.096 1.898v24.877c0 .485.393.878.878.878z" fill="url(#c)"/>
</svg>
